<svg viewBox="0 0 1200 600" xmlns="http://www.w3.org/2000/svg"><path d="M0 0h1200v200H0z" fill="#ff0000"/><path d="M0 200h1200v200H0z" fill="#fff"/><path d="M0 400h1200v200H0z" fill="#12388f"/><clipPath id="s"><path d="M490 165H710V330C710 400 660 445 600 470 540 445 490 400 490 330Z"/></clipPath><g clip-path="url(#s)"><path d="M490 165H710V330C710 400 660 445 600 470 540 445 490 400 490 330Z" fill="#fff"/><rect x="490" y="165" width="44" height="44" fill="#ff0000"/><rect x="490" y="253" width="44" height="44" fill="#ff0000"/><rect x="490" y="341" width="44" height="44" fill="#ff0000"/><rect x="490" y="429" width="44" height="44" fill="#ff0000"/><rect x="534" y="209" width="44" height="44" fill="#ff0000"/><rect x="534" y="297" width="44" height="44" fill="#ff0000"/><rect x="534" y="385" width="44" height="44" fill="#ff0000"/><rect x="578" y="165" width="44" height="44" fill="#ff0000"/><rect x="578" y="253" width="44" height="44" fill="#ff0000"/><rect x="578" y="341" width="44" height="44" fill="#ff0000"/><rect x="578" y="429" width="44" height="44" fill="#ff0000"/><rect x="622" y="209" width="44" height="44" fill="#ff0000"/><rect x="622" y="297" width="44" height="44" fill="#ff0000"/><rect x="622" y="385" width="44" height="44" fill="#ff0000"/><rect x="666" y="165" width="44" height="44" fill="#ff0000"/><rect x="666" y="253" width="44" height="44" fill="#ff0000"/><rect x="666" y="341" width="44" height="44" fill="#ff0000"/><rect x="666" y="429" width="44" height="44" fill="#ff0000"/></g><path d="M490 165H710V330C710 400 660 445 600 470 540 445 490 400 490 330Z" fill="none" stroke="#12388f" stroke-width="7"/><path d="M494 120h36v22c0 12-9 18-18 22-9-4-18-10-18-22z" fill="#4a90d9" stroke="#fff" stroke-width="2"/><path d="M538 120h36v22c0 12-9 18-18 22-9-4-18-10-18-22z" fill="#12388f" stroke="#fff" stroke-width="2"/><path d="M582 120h36v22c0 12-9 18-18 22-9-4-18-10-18-22z" fill="#ff0000" stroke="#fff" stroke-width="2"/><path d="M626 120h36v22c0 12-9 18-18 22-9-4-18-10-18-22z" fill="#12388f" stroke="#fff" stroke-width="2"/><path d="M670 120h36v22c0 12-9 18-18 22-9-4-18-10-18-22z" fill="#4a90d9" stroke="#fff" stroke-width="2"/></svg>